PathFileType	4	(X/Y/Z)	SUBJ63_1_walk_RCNL2025.trc
DataRate	CameraRate	NumFrames	NumMarkers	Units	OrigDataRate	OrigDataStartFrame	OrigNumFrames
100	100	13	25	mm	100	30	238
Frame#	Time	R_Shoulder			L_Shoulder			C7			J_Notch			R_Elbow			L_Elbow			R_Wrist			L_Wrist			R_Asis			L_Asis			Sacral			Thoracic			Sternum			R_Thigh_Lateral			R_Knee_Lateral			R_Shank_Lateral			R_Ankle_Lateral			R_Heel			R_Toe			L_Thigh_Lateral			L_Knee_Lateral			L_Shank_Lateral			L_Ankle_Lateral			L_Heel			L_Toe		
		X1	Y1	Z1	X2	Y2	Z2	X3	Y3	Z3	X4	Y4	Z4	X5	Y5	Z5	X6	Y6	Z6	X7	Y7	Z7	X8	Y8	Z8	X9	Y9	Z9	X10	Y10	Z10	X11	Y11	Z11	X12	Y12	Z12	X13	Y13	Z13	X14	Y14	Z14	X15	Y15	Z15	X16	Y16	Z16	X17	Y17	Z17	X18	Y18	Z18	X19	Y19	Z19	X20	Y20	Z20	X21	Y21	Z21	X22	Y22	Z22	X23	Y23	Z23	X24	Y24	Z24	X25	Y25	Z25
30	0.29000000	-614.786499	1269.806519	-153.970993	-611.522766	1283.975098	-485.898041	-690.153503	1344.634033	-323.321442	-578.841187	1231.512085	-322.976440	-662.014893	985.764282	-63.242912	-658.716919	990.618042	-584.826294	-598.200348	766.573517	-34.061885	-523.558105	808.971191	-602.295532	-574.644226	839.548828	-208.351807	-576.511475	819.318237	-458.591309	-800.648315	837.552856	-338.920166	-783.113281	1169.631470	-328.870087	-538.253235	1047.057739	-321.872040	-579.856995	495.322662	-161.106766	-570.788818	442.984039	-212.549042	-590.496216	261.740356	-177.323593	-607.730896	60.014469	-270.395966	-651.186829	61.641773	-322.665741	-492.627777	46.370163	-271.816193	-638.670654	454.450195	-574.237915	-637.840271	424.509949	-508.744232	-780.621338	308.308533	-541.786987	-948.091309	209.391129	-466.008484	-970.575562	244.395676	-406.810486	-907.517578	97.056099	-473.162567
31	0.30000000	-597.570312	1272.387573	-153.684341	-598.124817	1286.221802	-485.639160	-674.702637	1347.439453	-322.166534	-563.825867	1234.154907	-322.903168	-642.699097	988.428589	-62.319572	-649.586304	993.196228	-584.109375	-577.011444	769.545166	-34.760064	-520.257843	807.396759	-605.102966	-559.906128	841.581299	-207.552353	-562.680542	822.432312	-458.081482	-786.777161	841.052734	-336.438049	-768.084229	1172.529907	-326.439148	-523.861023	1049.384888	-322.466003	-572.787109	495.959045	-161.056702	-566.237305	443.248230	-212.635757	-588.112122	261.727936	-177.375290	-607.681152	60.197754	-270.435791	-651.180054	62.011562	-322.682678	-492.631134	46.449020	-271.787872	-610.209167	457.909851	-572.706665	-608.728882	428.129486	-507.190094	-748.890808	310.140747	-540.580750	-914.787231	208.360672	-465.686249	-939.218689	241.571243	-406.177002	-870.006531	98.753571	-474.760040
32	0.31000000	-580.542175	1275.083252	-153.539413	-584.986328	1288.494751	-485.571442	-659.431396	1350.218140	-321.155823	-548.945923	1236.830078	-323.011169	-623.386841	991.253052	-61.424557	-640.789185	995.781189	-583.341675	-555.662079	772.768860	-35.488771	-517.531433	806.112885	-607.960144	-545.288330	843.462585	-206.737564	-548.769897	825.883484	-457.628265	-772.871887	844.569397	-334.037689	-753.145447	1175.358032	-324.052704	-509.582336	1051.858154	-323.216797	-565.844604	496.681854	-161.183319	-561.913818	443.620728	-212.860214	-585.915588	261.870117	-177.546829	-607.622070	60.415428	-270.478455	-651.221802	62.413158	-322.659271	-492.618164	46.498867	-271.754181	-582.360901	462.068573	-570.862000	-580.159607	432.468719	-505.342621	-717.099976	311.954773	-539.180298	-880.188843	205.278259	-465.237213	-906.948242	236.623245	-405.700165	-830.187622	98.943748	-475.424927
33	0.32000000	-563.708740	1277.836670	-153.510834	-572.100525	1290.742676	-485.660156	-644.347046	1352.893311	-320.271393	-534.184631	1239.471924	-323.271973	-604.099304	994.165283	-60.545082	-632.296509	998.336304	-582.520020	-534.165802	776.185333	-36.233434	-515.305481	805.115021	-610.849823	-530.811707	845.147827	-205.859299	-534.734558	829.583923	-457.138092	-758.911987	847.994385	-331.816772	-738.284241	1178.037720	-321.705627	-495.380005	1054.435913	-324.075439	-559.180542	497.445251	-161.423462	-557.869995	444.076874	-213.167816	-584.068542	262.177246	-177.804443	-607.551514	60.680595	-270.539948	-651.277710	62.872631	-322.631439	-492.587280	46.531143	-271.701447	-555.199585	466.700928	-568.750549	-552.257935	437.318787	-503.237640	-685.367615	313.603302	-537.614929	-844.432129	200.297165	-464.632996	-873.765930	229.727432	-405.333984	-788.494934	97.749985	-475.168671
34	0.33000000	-547.070618	1280.575806	-153.571182	-559.449463	1292.900757	-485.859558	-629.445374	1355.391724	-319.489899	-519.526733	1242.010132	-323.656494	-584.854248	997.079712	-59.663555	-624.077026	1000.821777	-581.653076	-512.535217	779.720367	-36.972621	-513.500717	804.380615	-613.759247	-516.500671	846.600952	-204.891388	-520.549683	833.414429	-456.532227	-744.886475	851.226013	-329.858398	-723.488647	1180.497437	-319.391510	-481.220001	1057.062378	-324.992950	-552.919556	498.221161	-161.717545	-554.152283	444.600708	-213.503510	-582.651550	262.640167	-178.123566	-607.459961	61.009037	-270.642639	-651.291626	63.412434	-322.654297	-492.537079	46.558342	-271.615204	-528.785889	471.573639	-566.412537	-525.136353	442.458557	-500.904602	-653.777710	314.906036	-535.898682	-807.609619	193.623093	-463.827087	-839.625305	221.069595	-404.977753	-745.303345	95.370010	-474.084778
35	0.34000000	-530.623962	1283.218750	-153.693207	-547.005005	1294.897949	-486.119781	-614.713135	1357.647827	-318.785004	-504.958710	1244.374512	-324.138672	-565.665222	999.905151	-58.760502	-616.092346	1003.196838	-580.754395	-490.782074	783.290283	-37.682578	-512.038422	803.873016	-616.677551	-502.374146	847.794617	-203.821152	-506.208374	837.234558	-455.749786	-730.792358	854.175171	-328.228790	-708.748718	1182.676758	-317.106293	-467.074982	1059.669800	-325.926331	-547.132935	498.997375	-162.015396	-550.770264	445.184143	-213.818802	-581.654724	263.241547	-178.489410	-607.331238	61.417358	-270.813385	-651.185547	64.047150	-322.800201	-492.465912	46.590988	-271.483154	-503.156525	476.472198	-563.884460	-498.890961	447.667084	-498.367554	-622.373108	315.662476	-534.032898	-769.773682	185.495407	-462.764679	-804.444580	210.842163	-404.494781	-700.919434	92.051315	-472.324646
36	0.35000000	-514.361267	1285.681763	-153.851791	-534.731995	1296.666626	-486.394165	-600.130920	1359.605591	-318.130249	-490.468964	1246.499268	-324.695770	-546.537781	1002.553406	-57.819584	-608.295532	1005.420959	-579.837158	-468.916473	786.809723	-38.342583	-510.845917	803.545532	-619.592926	-488.436279	848.707153	-202.645325	-491.713440	840.893616	-454.752350	-716.630920	856.768738	-326.976349	-694.058533	1184.528320	-314.850647	-452.924072	1062.181274	-326.843811	-541.830750	499.772095	-162.275940	-547.683228	445.823547	-214.080338	-580.992615	263.962555	-178.896851	-607.148926	61.919521	-271.079620	-650.876526	64.782547	-323.144562	-492.370300	46.635498	-271.299133	-478.326294	481.223358	-561.200073	-473.599731	452.734680	-495.650543	-591.154541	315.673889	-532.009949	-730.944519	176.172119	-461.393555	-768.119934	199.246445	-403.737122	-655.581848	88.068779	-470.070587
37	0.36000000	-498.272614	1287.887329	-154.025940	-522.590271	1298.147949	-486.643677	-585.675171	1361.220093	-317.502747	-476.047882	1248.327148	-325.306915	-527.466736	1004.947510	-56.831387	-600.633423	1007.455750	-578.910156	-446.948410	790.198212	-38.937253	-509.857605	803.346771	-622.492950	-474.673126	849.318420	-201.370544	-477.068115	844.240845	-453.529694	-702.404785	858.953125	-326.130249	-679.416138	1186.018066	-312.631897	-438.752075	1064.515259	-327.725281	-536.965088	500.546814	-162.470825	-544.804565	446.516724	-214.275665	-580.533875	264.783386	-179.352356	-606.900146	62.525265	-271.467163	-650.307068	65.622040	-323.743774	-492.242249	46.692825	-271.067444	-454.303253	485.696625	-558.391541	-449.322876	457.470825	-492.784119	-560.092712	314.775513	-529.818848	-691.119934	165.922028	-459.672791	-730.537292	186.498611	-402.570526	-609.467834	83.709274	-467.511719
38	0.37000000	-482.346588	1289.769775	-154.200638	-510.536346	1299.294800	-486.840149	-571.319031	1362.457886	-316.886749	-461.687653	1249.812744	-325.951019	-508.436005	1007.027954	-55.795315	-593.050720	1009.266724	-577.978333	-424.892532	793.384460	-39.455896	-509.012848	803.226898	-625.366272	-461.057983	849.609558	-200.012100	-462.268066	847.135071	-452.104309	-688.115784	860.697021	-325.697083	-664.821472	1187.122925	-310.466705	-424.548523	1066.590088	-328.558624	-532.441895	501.319641	-162.593185	-542.021179	447.260620	-214.412857	-580.135376	265.685333	-179.874741	-606.577087	63.240479	-271.997681	-649.467773	66.576263	-324.617798	-492.065552	46.757401	-270.807404	-431.106201	489.788879	-555.491089	-426.105499	461.707794	-489.809448	-529.149170	312.871216	-527.452576	-650.287903	155.022430	-457.579773	-691.586792	172.838043	-400.896118	-562.706543	79.264236	-464.821808
39	0.38000000	-466.571625	1291.279419	-154.367355	-498.523804	1300.070801	-486.967499	-557.035645	1363.296631	-316.276001	-447.381134	1250.923218	-326.605408	-489.421875	1008.756348	-54.719910	-585.494385	1010.825195	-577.043762	-402.771576	796.309692	-39.890720	-508.254196	803.143066	-628.201813	-447.561127	849.566040	-198.590164	-447.300690	849.453430	-450.527313	-673.764648	861.992004	-325.658325	-650.273926	1187.827637	-308.382538	-410.306305	1068.330566	-329.336426	-528.139771	502.081940	-162.660294	-539.213501	448.048401	-214.514496	-579.670959	266.656586	-180.490082	-606.178406	64.067116	-272.680878	-648.401489	67.667381	-325.741089	-491.814362	46.816845	-270.555511	-408.777985	493.406189	-552.533813	-403.982300	465.301300	-486.775940	-498.299469	309.959869	-524.913635	-608.439575	143.759521	-455.116028	-651.183167	158.536743	-398.666107	-515.397644	75.025345	-462.136047
40	0.39000000	-450.935913	1292.383789	-154.522751	-486.504150	1300.448975	-487.020752	-542.801331	1363.724854	-315.673431	-433.118805	1251.637939	-327.244080	-470.398773	1010.115723	-53.621994	-577.916504	1012.108582	-576.107666	-380.616226	798.930817	-40.235239	-507.527893	803.061981	-630.986237	-434.155609	849.181763	-197.126648	-432.156494	851.096863	-448.860687	-659.349182	862.848511	-325.971741	-635.771484	1188.123901	-306.415375	-396.020569	1069.672607	-330.053131	-523.927368	502.819702	-162.704498	-536.265076	448.866913	-214.608521	-579.045288	267.696991	-181.218384	-605.710144	65.003326	-273.504669	-647.185547	68.920242	-327.047058	-491.462799	46.853954	-270.358490	-387.389404	496.448547	-549.557739	-382.982513	468.130798	-483.734344	-467.550507	306.143768	-522.220032	-565.584473	132.431442	-452.312286	-609.292480	143.908218	-395.894287	-467.635223	71.280571	-459.534576
41	0.40000000	-435.427032	1293.067383	-154.666458	-474.427826	1300.410278	-487.004639	-528.597534	1363.739990	-315.089172	-418.887085	1251.948364	-327.838867	-451.345398	1011.109009	-52.525162	-570.275452	1013.100464	-575.171570	-358.462646	801.223480	-40.483216	-506.786331	802.959320	-633.701691	-420.816437	848.461853	-195.642807	-416.840515	851.994019	-447.157715	-644.862305	863.289917	-326.579865	-621.311340	1188.010620	-304.603363	-381.687225	1070.566772	-330.703552	-519.670898	503.517731	-162.756149	-533.062317	449.695190	-214.717361	-578.190796	268.814728	-182.056305	-605.184265	66.044899	-274.431854	-645.898743	70.346291	-328.446411	-491.005493	46.853462	-270.254639	-367.032501	498.797699	-546.602173	-363.130035	470.101410	-480.730469	-436.948334	301.617401	-519.408997	-521.770996	121.352631	-449.232727	-565.963501	129.311874	-392.661774	-419.529694	68.308662	-457.040405
42	0.41000000	-420.032410	1293.331055	-154.799530	-462.245453	1299.943359	-486.930328	-514.410217	1363.346069	-314.537354	-404.669250	1251.855469	-328.364624	-432.251007	1011.755249	-51.456459	-562.534424	1013.790100	-574.237061	-336.348236	803.184204	-40.628749	-505.988510	802.817749	-636.322601	-407.517365	847.423706	-194.156616	-401.364288	852.106140	-445.460144	-630.291077	863.343384	-327.421875	-606.889893	1187.494263	-302.980560	-367.301147	1070.977905	-331.280884	-515.234802	504.164001	-162.826920	-529.494324	450.505737	-214.847351	-577.054382	270.015778	-182.967560	-604.614929	67.188026	-275.404938	-644.599548	71.940681	-329.845184	-490.469818	46.814018	-270.252319	-347.806854	500.313873	-543.706604	-344.436279	471.147797	-477.803223	-406.575684	296.640930	-516.536072	-477.113617	110.853889	-445.974701	-521.361633	115.150513	-389.118103	-371.229004	66.368416	-454.624847
